<?xml version="1.0" standalone="no"?>
<!DOCTYPE svg PUBLIC "-//W3C//DTD SVG 20010904//EN"
 "http://www.w3.org/TR/2001/REC-SVG-20010904/DTD/svg10.dtd">
<svg version="1.0" xmlns="http://www.w3.org/2000/svg"
 width="1920.000000pt" height="1080.000000pt" viewBox="0 0 1920.000000 1080.000000"
 preserveAspectRatio="xMidYMid meet">

<g transform="translate(0.000000,1080.000000) scale(0.100000,-0.100000)"
fill="#ffffff" stroke="none">
<path d="M6048 6588 c-15 -13 -1398 -2082 -1398 -2093 0 -3 235 -5 523 -5
l523 0 697 1045 c383 575 697 1049 697 1055 0 16 -1022 14 -1042 -2z"/>
<path d="M4292 6578 c-16 -20 -1382 -2070 -1382 -2074 0 -2 233 -4 518 -4
l517 1 110 165 c61 90 115 172 120 182 6 9 12 19 15 22 3 3 26 37 50 75 25 39
48 75 53 80 4 6 23 33 41 60 17 28 249 375 514 772 265 397 482 724 482 727 0
3 -231 6 -514 6 -399 0 -516 -3 -524 -12z"/>
<path d="M7290 5484 c-202 -54 -345 -199 -385 -391 -30 -139 -11 -323 44 -430
59 -116 167 -204 304 -249 70 -23 100 -27 207 -28 139 0 210 14 318 64 l62 29
0 105 c0 59 -2 106 -4 106 -2 0 -30 -16 -62 -35 -75 -45 -139 -65 -235 -72
-168 -12 -299 54 -365 184 -27 54 -29 65 -29 174 0 113 1 118 35 185 62 121
170 179 330 178 101 0 182 -22 263 -69 l57 -34 0 104 0 105 -51 25 c-122 62
-354 85 -489 49z"/>
<path d="M12169 5485 c-163 -40 -280 -128 -354 -267 -84 -159 -86 -380 -4
-547 42 -85 134 -176 220 -218 104 -52 178 -67 314 -67 140 0 225 18 332 70
l73 35 0 264 0 265 -210 0 -211 0 3 -97 3 -98 88 -3 87 -3 0 -109 0 -109 -32
-5 c-84 -13 -125 -14 -182 -5 -125 20 -215 85 -265 189 -23 49 -26 67 -26 165
0 100 3 115 28 167 57 115 164 180 312 186 113 5 201 -15 307 -68 l79 -39 -3
107 -3 107 -65 33 c-36 17 -96 39 -135 47 -87 18 -280 18 -356 0z"/>
<path d="M8030 4945 l0 -545 110 0 110 0 0 545 0 545 -110 0 -110 0 0 -545z"/>
<path d="M13900 4945 l0 -545 110 0 110 0 0 545 0 545 -110 0 -110 0 0 -545z"/>
<path d="M14327 5484 c-4 -4 -7 -250 -7 -546 l0 -538 115 0 115 0 -2 543 -3
542 -106 3 c-58 1 -108 -1 -112 -4z"/>
<path d="M8669 5168 c-109 -39 -185 -113 -225 -223 -26 -72 -26 -241 0 -311
42 -114 123 -187 251 -227 125 -39 328 -27 459 28 l36 15 0 81 c0 73 -2 80
-17 74 -74 -32 -141 -47 -224 -52 -119 -7 -188 8 -237 51 -32 28 -62 79 -62
106 0 7 99 10 295 10 l295 0 0 68 c0 178 -85 317 -229 373 -86 34 -254 37
-342 7z m225 -143 c51 -10 104 -72 120 -137 l6 -28 -189 0 -190 0 14 46 c21
71 65 111 135 124 34 7 51 6 104 -5z"/>
<path d="M9560 5176 c-30 -7 -72 -18 -92 -25 l-38 -13 0 -79 c0 -43 3 -79 8
-79 4 0 36 10 72 22 51 17 91 22 185 22 108 1 124 -1 161 -22 49 -29 63 -49
71 -109 6 -43 5 -46 -13 -39 -114 44 -320 47 -412 7 -155 -69 -193 -271 -72
-392 72 -72 203 -104 325 -79 73 15 110 33 153 73 l32 31 0 -47 0 -47 106 0
106 0 -4 283 c-4 322 -7 337 -90 413 -73 68 -138 87 -303 90 -88 2 -160 -2
-195 -10z m325 -455 c43 -19 44 -21 39 -53 -8 -43 -41 -92 -77 -113 -38 -22
-134 -31 -180 -16 -75 25 -103 113 -53 162 53 51 180 61 271 20z"/>
<path d="M10730 5181 c-49 -16 -91 -42 -131 -82 l-39 -39 0 60 0 61 -107 -3
-108 -3 -3 -387 -2 -388 109 0 109 0 4 223 c4 174 9 232 22 267 45 120 171
165 257 93 55 -47 59 -68 59 -338 l0 -245 111 0 110 0 -3 293 c-3 284 -4 293
-27 337 -30 58 -76 107 -126 133 -43 22 -188 34 -235 18z"/>
<path d="M13131 5180 c-25 -5 -66 -17 -93 -26 l-48 -16 0 -80 c0 -79 0 -80 23
-73 269 84 467 46 467 -89 l0 -42 -72 18 c-103 27 -272 22 -343 -10 -100 -45
-144 -113 -145 -220 0 -139 80 -226 234 -253 115 -20 233 6 305 67 l41 36 0
-46 0 -46 100 0 100 0 0 283 c0 275 -1 283 -24 333 -29 62 -91 117 -165 146
-46 18 -80 22 -196 24 -77 2 -160 -1 -184 -6z m307 -455 c36 -15 42 -21 42
-47 0 -92 -91 -155 -212 -146 -49 4 -64 9 -88 34 -39 39 -44 95 -12 133 41 51
175 64 270 26z"/>
<path d="M14975 5173 c-155 -56 -229 -146 -256 -311 -15 -89 -1 -192 37 -269
33 -69 118 -146 191 -173 133 -50 310 -49 459 2 l69 24 3 81 3 81 -73 -25
c-86 -30 -248 -42 -314 -24 -76 20 -128 69 -149 139 l-6 22 297 0 297 0 -5 98
c-4 77 -10 110 -30 154 -36 78 -98 142 -176 180 -59 29 -74 32 -181 35 -92 3
-126 0 -166 -14z m246 -164 c26 -13 44 -33 63 -71 14 -28 26 -58 26 -65 0 -10
-40 -13 -185 -13 l-185 0 0 23 c0 30 39 96 72 120 52 39 139 41 209 6z"/>
<path d="M16063 5173 c-23 -8 -65 -35 -92 -59 l-50 -45 -3 53 -3 53 -107 3
-108 3 0 -391 0 -390 110 0 110 0 0 208 c1 224 8 277 45 334 66 100 217 97
272 -5 15 -27 18 -70 21 -284 l4 -253 110 0 109 0 -3 283 -3 283 -33 66 c-36
74 -85 119 -152 143 -54 19 -172 18 -227 -2z"/>
</g>
</svg>
